<?xml version="1.0" encoding="UTF-8"?>
<svg xmlns="http://www.w3.org/2000/svg" style="display: none;">
  <!--
1. logo
2. user
3. icon-1
4. icon-2
5. icon-3
6. favorite-icon
7. 
8. arrow-down
9. search-icon
10. close-icon
11. arrow-down-light
12. close-icon-circle
-->
<symbol id="logo" viewBox="0 0 28 25">
    <path fill-rule="evenodd" clip-rule="evenodd" d="M14.2406 3.91849C13.0682 3.91849 12.1178 4.86466 12.1178 6.03181V18.9682C12.1178 22.2995 9.40515 25 6.05891 25C2.71267 25 0 22.2995 0 18.9682V13.5201H3.9361V18.9682C3.9361 20.1353 4.88651 21.0815 6.05891 21.0815C7.23131 21.0815 8.18172 20.1353 8.18172 18.9682V6.03181C8.18172 2.70054 10.8944 0 14.2406 0C17.5869 0 20.2995 2.70053 20.2995 6.03181V10.1198H16.3634V6.03181C16.3634 4.86466 15.413 3.91849 14.2406 3.91849ZM16.3635 19.2078V13.4583H20.2996V19.2078C20.2996 20.2426 21.1422 21.0815 22.1817 21.0815C23.2212 21.0815 24.0639 20.2426 24.0639 19.2078V13.4583H28V19.2078C28 22.4067 25.3951 25 22.1817 25C18.9684 25 16.3635 22.4067 16.3635 19.2078Z"/>
</symbol>
<symbol id="user" viewBox="0 0 32 32">
    <path fill-rule="evenodd" clip-rule="evenodd" d="M15.4997 9.30396C14.0361 9.30396 12.8497 10.4904 12.8497 11.954C12.8497 13.4175 14.0361 14.604 15.4997 14.604C16.9632 14.604 18.1497 13.4175 18.1497 11.954C18.1497 10.4904 16.9632 9.30396 15.4997 9.30396ZM11.1497 11.954C11.1497 9.55152 13.0972 7.60396 15.4997 7.60396C17.9021 7.60396 19.8497 9.55152 19.8497 11.954C19.8497 14.3564 17.9021 16.304 15.4997 16.304C13.0972 16.304 11.1497 14.3564 11.1497 11.954Z"/>
    <path fill-rule="evenodd" clip-rule="evenodd" d="M6.14966 22.5C6.14966 19.8214 8.32108 17.65 10.9997 17.65H19.9997C22.6782 17.65 24.8497 19.8214 24.8497 22.5V25C24.8497 25.4694 24.4691 25.35 23.9997 25.35C23.5302 25.35 23.1497 24.9694 23.1497 24.5V22.5C23.1497 20.7603 21.7394 19.35 19.9997 19.35H10.9997C9.25996 19.35 7.84966 20.7603 7.84966 22.5V24.5C7.84966 24.9694 7.4691 25.35 6.99966 25.35C6.53022 25.35 6.14966 25.4694 6.14966 25L6.14966 22.5Z"/>
    <path fill-rule="evenodd" clip-rule="evenodd" d="M6.14966 25C6.14966 24.5305 6.53022 24.15 6.99966 24.15L23.9997 24.15C24.4691 24.15 24.8497 24.5306 24.8497 25C24.8497 25.4694 24.4691 25.85 23.9997 25.85H6.99966C6.53022 25.85 6.14966 25.4694 6.14966 25Z"/>
</symbol>

<symbol id="icon-1" viewBox="0 0 28 28">
    <path d="M11.6667 3.5H3.5V11.6667H11.6667V3.5Z" stroke-width="2" stroke-linecap="round" stroke-linejoin="round"/>
    <path d="M24.5 3.5H16.3334V11.6667H24.5V3.5Z" stroke-width="2" stroke-linecap="round" stroke-linejoin="round"/>
    <path d="M24.5 16.3333H16.3334V24.5H24.5V16.3333Z" stroke-width="2" stroke-linecap="round" stroke-linejoin="round"/>
    <path d="M11.6667 16.3333H3.5V24.5H11.6667V16.3333Z" stroke-width="2" stroke-linecap="round" stroke-linejoin="round"/>
</symbol>

<symbol id="icon-2" viewBox="0 0 32 32">
    <path fill-rule="evenodd" clip-rule="evenodd" d="M10.4638 8.85C9.57253 8.85 8.85002 9.57251 8.85002 10.4638V21.3043C8.85002 22.1956 9.57253 22.9181 10.4638 22.9181H21.3044C22.1956 22.9181 22.9181 22.1956 22.9181 21.3044V15.8841C22.9181 15.4146 23.2987 15.0341 23.7681 15.0341C24.2376 15.0341 24.6181 15.4146 24.6181 15.8841V21.3044C24.6181 23.1345 23.1345 24.6181 21.3044 24.6181H10.4638C8.63365 24.6181 7.15002 23.1345 7.15002 21.3043V10.4638C7.15002 8.63362 8.63365 7.15 10.4638 7.15H19.8261C20.2956 7.15 20.6761 7.53056 20.6761 8C20.6761 8.46944 20.2956 8.85 19.8261 8.85H10.4638ZM25.6011 7.89171C25.933 8.22366 25.933 8.76185 25.6011 9.0938L16.4851 18.2097C16.1532 18.5417 15.615 18.5417 15.283 18.2097L12.3265 15.2532C11.9946 14.9213 11.9946 14.3831 12.3265 14.0511C12.6585 13.7192 13.1967 13.7192 13.5286 14.0511L15.8841 16.4066L24.399 7.89171C24.7309 7.55977 25.2691 7.55977 25.6011 7.89171Z"/>
</symbol>

<symbol id="icon-3" viewBox="0 0 32 32">
    <path fill-rule="evenodd" clip-rule="evenodd" d="M15.9997 7.85001C11.4985 7.85001 7.84966 11.4989 7.84966 16C7.84966 20.5011 11.4985 24.15 15.9997 24.15C20.5008 24.15 24.1497 20.5011 24.1497 16C24.1497 11.4989 20.5008 7.85001 15.9997 7.85001ZM6.14966 16C6.14966 10.56 10.5597 6.15001 15.9997 6.15001C21.4397 6.15001 25.8497 10.56 25.8497 16C25.8497 21.44 21.4397 25.85 15.9997 25.85C10.5597 25.85 6.14966 21.44 6.14966 16Z"/>
    <path fill-rule="evenodd" clip-rule="evenodd" d="M15.9997 14.5875C16.4691 14.5875 16.8497 14.9681 16.8497 15.4375V20.5C16.8497 20.9694 16.4691 21.35 15.9997 21.35C15.5302 21.35 15.1497 20.9694 15.1497 20.5V15.4375C15.1497 14.9681 15.5302 14.5875 15.9997 14.5875Z"/>
    <path fill-rule="evenodd" clip-rule="evenodd" d="M15.9997 11.2125C16.4691 11.2125 16.8497 11.5931 16.8497 12.0625V12.625C16.8497 13.0944 16.4691 13.475 15.9997 13.475C15.5302 13.475 15.1497 13.0944 15.1497 12.625V12.0625C15.1497 11.5931 15.5302 11.2125 15.9997 11.2125Z"/>
</symbol>
<symbol id="favorite-icon" viewBox="0 0 24 24">
    <path fill-rule="evenodd" clip-rule="evenodd" d="M19.6596 5.67794C20.1408 6.22368 20.5034 6.8674 20.7237 7.56672C20.9614 8.29783 21.0472 9.07162 20.9754 9.83856C20.9037 10.6055 20.6761 11.3487 20.3072 12.0205C19.0193 14.3407 16.4307 16.9341 12.6108 19.7273C12.4364 19.8546 12.2274 19.9231 12.0131 19.9231C11.7988 19.9231 11.5898 19.8546 11.4154 19.7273C7.57748 16.9289 4.98886 14.3354 3.70354 12.0179C3.3307 11.3453 3.09988 10.6003 3.02593 9.83091C2.95199 9.06154 3.03658 8.28487 3.27425 7.55095C3.49563 6.85381 3.85883 6.21245 4.33998 5.669C4.82113 5.12556 5.40934 4.69235 6.06595 4.39782C7.57234 3.7199 9.13271 3.90909 10.5774 4.96013C11.1092 5.35023 11.5873 5.81155 11.999 6.33174C12.4106 5.81155 12.8887 5.35023 13.4205 4.96013C14.8678 3.91434 16.4256 3.72253 17.932 4.40045C18.5896 4.69682 19.1784 5.1322 19.6596 5.67794Z" stroke-width="1.5"/>
</symbol>



<symbol id="arrow-down" viewBox="0 0 9 5">
    <path d="M4.5 5L0 0L9 6.16899e-07L4.5 5Z"/>
</symbol>
<symbol id="search-icon" viewBox="0 0 24 24" >
    <g opacity="0.6">
    <path d="M11 19C15.4183 19 19 15.4183 19 11C19 6.58172 15.4183 3 11 3C6.58172 3 3 6.58172 3 11C3 15.4183 6.58172 19 11 19Z" stroke="#041131" stroke-width="1.5" stroke-linecap="round" stroke-linejoin="round"/>
    <path d="M21 21L16.65 16.65" stroke="#041131" stroke-width="1.5" stroke-linecap="round" stroke-linejoin="round"/>
    </g>
</symbol>
<symbol id="close-icon" viewBox="0 0 16 16">
    <g opacity="0.5">
    <path d="M12 4L4 12" stroke-width="1.5" stroke-linecap="round" stroke-linejoin="round"/>
    <path d="M4 4L12 12" stroke-width="1.5" stroke-linecap="round" stroke-linejoin="round"/>
    </g>
</symbol>
<symbol id="arrow-down-light" viewBox="0 0 16 16">
    <g opacity="0.8">
    <path d="M4 6L8 10L12 6" stroke-width="1.5" stroke-linecap="round" stroke-linejoin="round"/>
    </g>
</symbol>

<symbol id="close-icon-circle" viewBox="0 0 36 36">
    <circle cx="18" cy="18" r="18" fill="#F6F9FE"/>
    <path d="M24 12L12 24" stroke="#61636F" stroke-width="2.5" stroke-linecap="round" stroke-linejoin="round"/>
    <path d="M12 12L24 24" stroke="#61636F" stroke-width="2.5" stroke-linecap="round" stroke-linejoin="round"/>
</symbol>


</svg>
